<?xml version="1.0" standalone="no"?>
<!DOCTYPE svg PUBLIC "-//W3C//DTD SVG 20010904//EN"
 "http://www.w3.org/TR/2001/REC-SVG-20010904/DTD/svg10.dtd">
<svg version="1.0" xmlns="http://www.w3.org/2000/svg"
 width="300.000000pt" height="300.000000pt" viewBox="0 0 300.000000 300.000000"
 preserveAspectRatio="xMidYMid meet">
<metadata>
Created by potrace 1.11, written by Peter Selinger 2001-2013
</metadata>
<g transform="translate(0.000000,300.000000) scale(0.100000,-0.100000)"
fill="#000000" stroke="none">
<path d="M1365 2989 c-329 -32 -632 -178 -874 -420 -141 -141 -264 -325 -329
-494 -10 -27 -22 -59 -27 -70 -4 -11 -9 -24 -10 -30 -2 -5 -10 -35 -19 -65 -9
-30 -19 -71 -22 -90 -3 -19 -7 -41 -10 -49 -19 -57 -26 -344 -11 -476 17 -153
87 -372 165 -515 141 -260 320 -442 597 -607 94 -56 306 -132 415 -149 188
-29 393 -27 548 5 447 93 823 391 1024 811 38 81 94 237 103 291 3 19 10 50
15 69 31 119 34 411 6 565 -100 550 -487 1001 -1001 1165 -38 12 -79 24 -90
26 -11 2 -40 7 -65 13 -111 24 -287 32 -415 20z"/>
</g>
</svg>
